# xmcd CD database file
#
# Track frame offsets:
#	150
#	37301
#	54859
#	76872
#	103608
#	119292
#	144598
#	163424
#	186712
#	196726
#	222825
#	238969
#
# Disc length: 3452 seconds
#
# Revision: 0
# Processed by: cddbd v1.5PL3 Copyright (c) Steve Scherf et al.
# Submitted via: CDex 1.51
#
DISCID=b20d7a0c
DTITLE=High Brass - Higher!
DYEAR=2003
DGENRE=Jazz
TTITLE0=Channel One Suite
TTITLE1=Pegasus
TTITLE2=(It's just) Talk
TTITLE3=First Circle
TTITLE4=In her family
TTITLE5=Strawberry soup
TTITLE6=Legend of the one eyed sailor
TTITLE7=Dream of the return
TTITLE8=Matchpoint
TTITLE9=Land of make believe
TTITLE10=Everybody loves the blues
TTITLE11=La virgin De La Macarena
EXTD=YEAR: 2003
EXTT0=
EXTT1=
EXTT2=
EXTT3=
EXTT4=
EXTT5=
EXTT6=
EXTT7=
EXTT8=
EXTT9=
EXTT10=
EXTT11=
PLAYORDER=
